RobotoSerifDisplay-HairlineWidth1780.ufo
<glyph name="parenleft" format="2">
  <advance width="389"/>
  <unicode hex="0028"/>
  <outline>
    <contour>
      <point x="101" y="310" type="curve" smooth="yes"/>
      <point x="101" y="106"/>
      <point x="229" y="-46"/>
      <point x="359" y="-127" type="curve"/>
      <point x="359" y="-130" type="line"/>
      <point x="337" y="-130" type="line"/>
      <point x="202" y="-46"/>
      <point x="72" y="113"/>
      <point x="72" y="310" type="curve" smooth="yes"/>
      <point x="72" y="507"/>
      <point x="202" y="666"/>
      <point x="337" y="750" type="curve"/>
      <point x="359" y="750" type="line"/>
      <point x="359" y="747" type="line"/>
      <point x="229" y="666"/>
      <point x="101" y="514"/>
    </contour>
  </outline>
</glyph>
<glyph name="four" format="2">
  <advance width="699"/>
  <unicode hex="0034"/>
  <outline>
    <contour>
      <point x="56" y="112" type="line"/>
      <point x="683" y="112" type="line"/>
      <point x="683" y="140" type="line"/>
      <point x="77" y="140" type="line"/>
      <point x="82" y="129" type="line"/>
      <point x="503" y="600" type="line"/>
      <point x="503" y="609" type="line"/>
      <point x="490" y="609" type="line"/>
      <point x="56" y="127" type="line"/>
    </contour>
    <contour>
      <point x="515" y="-77" type="line"/>
      <point x="515" y="609" type="line"/>
      <point x="499" y="609" type="line"/>
      <point x="477" y="582" type="line"/>
      <point x="477" y="-77" type="line"/>
    </contour>
  </outline>
</glyph>
<glyph name="at" format="2">
  <advance width="1106"/>
  <unicode hex="0040"/>
  <outline>
    <contour>
      <point x="579" y="-139" type="curve" smooth="yes"/>
      <point x="285" y="-139"/>
      <point x="79" y="3"/>
      <point x="79" y="234" type="curve" smooth="yes"/>
      <point x="79" y="479"/>
      <point x="300" y="659"/>
      <point x="608" y="659" type="curve" smooth="yes"/>
      <point x="876" y="659"/>
      <point x="1031" y="523"/>
      <point x="1031" y="342" type="curve" smooth="yes"/>
      <point x="1031" y="155"/>
      <point x="927" y="66"/>
      <point x="820" y="66" type="curve" smooth="yes"/>
      <point x="739" y="66"/>
      <point x="700" y="97"/>
      <point x="719" y="179" type="curve" smooth="yes"/>
      <point x="782" y="468" type="line"/>
      <point x="760" y="468" type="line"/>
      <point x="729" y="404" type="line"/>
      <point x="723" y="398" type="line"/>
      <point x="667" y="131" type="line"/>
      <point x="665" y="131"/>
      <point x="670" y="130"/>
      <point x="670" y="130" type="curve"/>
      <point x="681" y="84"/>
      <point x="725" y="53"/>
      <point x="818" y="53" type="curve" smooth="yes"/>
      <point x="946" y="53"/>
      <point x="1062" y="159"/>
      <point x="1062" y="342" type="curve" smooth="yes"/>
      <point x="1062" y="532"/>
      <point x="886" y="673"/>
      <point x="608" y="673" type="curve" smooth="yes"/>
      <point x="292" y="673"/>
      <point x="49" y="487"/>
      <point x="49" y="234" type="curve" smooth="yes"/>
      <point x="49" y="-5"/>
      <point x="271" y="-153"/>
      <point x="579" y="-153" type="curve" smooth="yes"/>
      <point x="713" y="-153"/>
      <point x="829" y="-120"/>
      <point x="897" y="-88" type="curve"/>
      <point x="892" y="-75" type="line"/>
      <point x="821" y="-108"/>
      <point x="713" y="-139"/>
    </contour>
    <contour>
      <point x="510" y="49" type="curve" smooth="yes"/>
      <point x="593" y="49"/>
      <point x="651" y="95"/>
      <point x="690" y="160" type="curve"/>
      <point x="690" y="178" type="line"/>
      <point x="648" y="110"/>
      <point x="587" y="63"/>
      <point x="508" y="63" type="curve" smooth="yes"/>
      <point x="415" y="63"/>
      <point x="365" y="114"/>
      <point x="365" y="221" type="curve" smooth="yes"/>
      <point x="365" y="338"/>
      <point x="450" y="460"/>
      <point x="582" y="460" type="curve" smooth="yes"/>
      <point x="656" y="460"/>
      <point x="705" y="436"/>
      <point x="727" y="356" type="curve"/>
      <point x="731" y="379" type="line"/>
      <point x="720" y="441"/>
      <point x="663" y="474"/>
      <point x="588" y="474" type="curve" smooth="yes"/>
      <point x="436" y="474"/>
      <point x="323" y="353"/>
      <point x="323" y="221" type="curve" smooth="yes"/>
      <point x="323" y="111"/>
      <point x="399" y="49"/>
    </contour>
  </outline>
</glyph>
<glyph name="C" format="2">
  <advance width="837"/>
  <unicode hex="0043"/>
  <outline>
    <contour>
      <point x="445" y="704" type="curve" smooth="yes"/>
      <point x="604" y="704"/>
      <point x="708" y="631"/>
      <point x="749" y="546" type="curve"/>
      <point x="761" y="546" type="line"/>
      <point x="761" y="710" type="line"/>
      <point x="741" y="710" type="line"/>
      <point x="732" y="603" type="line"/>
      <point x="734" y="600" type="line"/>
      <point x="680" y="667"/>
      <point x="580" y="720"/>
      <point x="445" y="720" type="curve" smooth="yes"/>
      <point x="232" y="720"/>
      <point x="47" y="569"/>
      <point x="47" y="355" type="curve" smooth="yes"/>
      <point x="47" y="138"/>
      <point x="212" y="-10"/>
      <point x="446" y="-10" type="curve" smooth="yes"/>
      <point x="631" y="-10"/>
      <point x="742" y="76"/>
      <point x="784" y="199" type="curve"/>
      <point x="766" y="209" type="line"/>
      <point x="732" y="97"/>
      <point x="632" y="7"/>
      <point x="445" y="7" type="curve" smooth="yes"/>
      <point x="238" y="7"/>
      <point x="87" y="145"/>
      <point x="87" y="355" type="curve" smooth="yes"/>
      <point x="87" y="566"/>
      <point x="254" y="704"/>
    </contour>
  </outline>
</glyph>
<glyph name="G" format="2">
  <advance width="889"/>
  <unicode hex="0047"/>
  <outline>
    <contour>
      <point x="786" y="302" type="line" smooth="yes"/>
      <point x="786" y="323"/>
      <point x="820" y="328"/>
      <point x="870" y="328" type="curve" smooth="yes"/>
      <point x="875" y="328" type="line"/>
      <point x="875" y="341" type="line"/>
      <point x="642" y="341" type="line"/>
      <point x="642" y="328" type="line"/>
      <point x="658" y="328" type="line" smooth="yes"/>
      <point x="713" y="328"/>
      <point x="751" y="323"/>
      <point x="751" y="302" type="curve" smooth="yes"/>
      <point x="751" y="92" type="line"/>
      <point x="724" y="64"/>
      <point x="626" y="7"/>
      <point x="479" y="7" type="curve" smooth="yes"/>
      <point x="233" y="7"/>
      <point x="87" y="138"/>
      <point x="87" y="355" type="curve" smooth="yes"/>
      <point x="87" y="565"/>
      <point x="245" y="704"/>
      <point x="459" y="704" type="curve" smooth="yes"/>
      <point x="619" y="704"/>
      <point x="732" y="632"/>
      <point x="771" y="546" type="curve"/>
      <point x="782" y="546" type="line"/>
      <point x="782" y="710" type="line"/>
      <point x="763" y="710" type="line"/>
      <point x="753" y="603" type="line"/>
      <point x="757" y="597" type="line"/>
      <point x="714" y="665"/>
      <point x="594" y="720"/>
      <point x="459" y="720" type="curve" smooth="yes"/>
      <point x="227" y="720"/>
      <point x="47" y="569"/>
      <point x="47" y="355" type="curve" smooth="yes"/>
      <point x="47" y="137"/>
      <point x="219" y="-10"/>
      <point x="477" y="-10" type="curve" smooth="yes"/>
      <point x="631" y="-10"/>
      <point x="744" y="52"/>
      <point x="786" y="102" type="curve"/>
    </contour>
  </outline>
</glyph>
<glyph name="K" format="2">
  <advance width="800"/>
  <unicode hex="004B"/>
  <outline>
    <contour>
      <point x="37" y="0" type="line"/>
      <point x="293" y="0" type="line"/>
      <point x="293" y="13" type="line"/>
      <point x="282" y="13" type="line" smooth="yes"/>
      <point x="239" y="13"/>
      <point x="184" y="16"/>
      <point x="184" y="23" type="curve" smooth="yes"/>
      <point x="184" y="687" type="line" smooth="yes"/>
      <point x="184" y="694"/>
      <point x="239" y="697"/>
      <point x="282" y="697" type="curve" smooth="yes"/>
      <point x="293" y="697" type="line"/>
      <point x="293" y="710" type="line"/>
      <point x="37" y="710" type="line"/>
      <point x="37" y="697" type="line"/>
      <point x="52" y="697" type="line" smooth="yes"/>
      <point x="107" y="697"/>
      <point x="146" y="692"/>
      <point x="146" y="671" type="curve" smooth="yes"/>
      <point x="146" y="39" type="line" smooth="yes"/>
      <point x="146" y="18"/>
      <point x="107" y="13"/>
      <point x="52" y="13" type="curve" smooth="yes"/>
      <point x="37" y="13" type="line"/>
    </contour>
    <contour>
      <point x="560" y="0" type="line"/>
      <point x="788" y="0" type="line"/>
      <point x="788" y="13" type="line"/>
      <point x="773" y="13" type="line" smooth="yes"/>
      <point x="725" y="13"/>
      <point x="718" y="16"/>
      <point x="687" y="41" type="curve" smooth="yes"/>
      <point x="272" y="384" type="line"/>
      <point x="252" y="363" type="line"/>
      <point x="638" y="671" type="line" smooth="yes"/>
      <point x="656" y="688"/>
      <point x="680" y="697"/>
      <point x="712" y="697" type="curve" smooth="yes"/>
      <point x="743" y="697" type="line"/>
      <point x="743" y="710" type="line"/>
      <point x="519" y="710" type="line"/>
      <point x="519" y="697" type="line"/>
      <point x="528" y="697" type="line" smooth="yes"/>
      <point x="584" y="697"/>
      <point x="625" y="689"/>
      <point x="628" y="683" type="curve"/>
      <point x="240" y="369" type="line"/>
      <point x="240" y="364" type="line"/>
      <point x="659" y="25" type="line"/>
      <point x="659" y="17"/>
      <point x="611" y="13"/>
      <point x="571" y="13" type="curve" smooth="yes"/>
      <point x="560" y="13" type="line"/>
    </contour>
  </outline>
</glyph>
<glyph name="L" format="2">
  <advance width="667"/>
  <unicode hex="004C"/>
  <outline>
    <contour>
      <point x="300" y="710" type="line"/>
      <point x="300" y="697" type="line"/>
      <point x="285" y="697" type="line" smooth="yes"/>
      <point x="224" y="697"/>
      <point x="184" y="692"/>
      <point x="184" y="671" type="curve" smooth="yes"/>
      <point x="184" y="15" type="line"/>
      <point x="425" y="15" type="line" smooth="yes"/>
      <point x="565" y="15"/>
      <point x="595" y="23"/>
      <point x="597" y="60" type="curve" smooth="yes"/>
      <point x="607" y="190" type="line"/>
      <point x="623" y="190" type="line"/>
      <point x="623" y="0" type="line"/>
      <point x="37" y="0" type="line"/>
      <point x="37" y="13" type="line"/>
      <point x="52" y="13" type="line" smooth="yes"/>
      <point x="107" y="13"/>
      <point x="146" y="18"/>
      <point x="146" y="39" type="curve" smooth="yes"/>
      <point x="146" y="671" type="line" smooth="yes"/>
      <point x="146" y="692"/>
      <point x="107" y="697"/>
      <point x="52" y="697" type="curve" smooth="yes"/>
      <point x="37" y="697" type="line"/>
      <point x="37" y="710" type="line"/>
    </contour>
  </outline>
</glyph>
<glyph name="S" format="2">
  <advance width="706"/>
  <unicode hex="0053"/>
  <outline>
    <contour>
      <point x="402" y="6" type="curve" smooth="yes"/>
      <point x="249" y="6"/>
      <point x="141" y="79"/>
      <point x="89" y="186" type="curve"/>
      <point x="72" y="186" type="line"/>
      <point x="72" y="0" type="line"/>
      <point x="91" y="0" type="line"/>
      <point x="105" y="126" type="line"/>
      <point x="117" y="126"/>
      <point x="100" y="143"/>
      <point x="92" y="143" type="curve"/>
      <point x="136" y="68"/>
      <point x="236" y="-10"/>
      <point x="401" y="-10" type="curve" smooth="yes"/>
      <point x="553" y="-10"/>
      <point x="666" y="56"/>
      <point x="666" y="185" type="curve" smooth="yes"/>
      <point x="666" y="317"/>
      <point x="524" y="357"/>
      <point x="387" y="387" type="curve" smooth="yes"/>
      <point x="256" y="416"/>
      <point x="140" y="446"/>
      <point x="140" y="554" type="curve" smooth="yes"/>
      <point x="140" y="641"/>
      <point x="220" y="704"/>
      <point x="348" y="704" type="curve" smooth="yes"/>
      <point x="481" y="704"/>
      <point x="572" y="633"/>
      <point x="605" y="559" type="curve"/>
      <point x="622" y="559" type="line"/>
      <point x="622" y="710" type="line"/>
      <point x="603" y="710" type="line"/>
      <point x="590" y="599" type="line"/>
      <point x="597" y="589"/>
      <point x="609" y="579"/>
      <point x="607" y="589" type="curve"/>
      <point x="580" y="652"/>
      <point x="484" y="720"/>
      <point x="350" y="720" type="curve" smooth="yes"/>
      <point x="204" y="720"/>
      <point x="107" y="655"/>
      <point x="107" y="550" type="curve" smooth="yes"/>
      <point x="107" y="420"/>
      <point x="247" y="382"/>
      <point x="381" y="352" type="curve" smooth="yes"/>
      <point x="511" y="323"/>
      <point x="634" y="288"/>
      <point x="634" y="175" type="curve" smooth="yes"/>
      <point x="634" y="72"/>
      <point x="540" y="6"/>
    </contour>
  </outline>
</glyph>
<glyph name="T" format="2">
  <advance width="745"/>
  <unicode hex="0054"/>
  <outline>
    <contour>
      <point x="354" y="39" type="line" smooth="yes"/>
      <point x="354" y="18"/>
      <point x="312" y="13"/>
      <point x="252" y="13" type="curve" smooth="yes"/>
      <point x="232" y="13" type="line"/>
      <point x="232" y="0" type="line"/>
      <point x="514" y="0" type="line"/>
      <point x="514" y="13" type="line"/>
      <point x="493" y="13" type="line" smooth="yes"/>
      <point x="434" y="13"/>
      <point x="391" y="18"/>
      <point x="391" y="39" type="curve" smooth="yes"/>
      <point x="391" y="695" type="line"/>
      <point x="571" y="695" type="line" smooth="yes"/>
      <point x="650" y="695"/>
      <point x="685" y="690"/>
      <point x="686" y="665" type="curve" smooth="yes"/>
      <point x="695" y="562" type="line"/>
      <point x="712" y="562" type="line"/>
      <point x="712" y="710" type="line"/>
      <point x="34" y="710" type="line"/>
      <point x="34" y="562" type="line"/>
      <point x="51" y="562" type="line"/>
      <point x="60" y="665" type="line" smooth="yes"/>
      <point x="61" y="690"/>
      <point x="95" y="695"/>
      <point x="175" y="695" type="curve" smooth="yes"/>
      <point x="354" y="695" type="line"/>
    </contour>
  </outline>
</glyph>
<glyph name="Y" format="2">
  <advance width="800"/>
  <unicode hex="0059"/>
  <outline>
    <contour>
      <point x="382" y="319" type="line"/>
      <point x="382" y="39" type="line" smooth="yes"/>
      <point x="382" y="18"/>
      <point x="339" y="13"/>
      <point x="280" y="13" type="curve" smooth="yes"/>
      <point x="259" y="13" type="line"/>
      <point x="259" y="0" type="line"/>
      <point x="541" y="0" type="line"/>
      <point x="541" y="13" type="line"/>
      <point x="521" y="13" type="line" smooth="yes"/>
      <point x="461" y="13"/>
      <point x="419" y="18"/>
      <point x="419" y="39" type="curve" smooth="yes"/>
      <point x="419" y="319" type="line"/>
      <point x="404" y="286" type="line"/>
      <point x="707" y="666" type="line" smooth="yes"/>
      <point x="725" y="693"/>
      <point x="759" y="697"/>
      <point x="794" y="697" type="curve" smooth="yes"/>
      <point x="800" y="697" type="line"/>
      <point x="800" y="710" type="line"/>
      <point x="578" y="710" type="line"/>
      <point x="578" y="697" type="line"/>
      <point x="593" y="697" type="line" smooth="yes"/>
      <point x="643" y="697"/>
      <point x="688" y="688"/>
      <point x="690" y="675" type="curve"/>
      <point x="398" y="305" type="line"/>
      <point x="414" y="316" type="line"/>
      <point x="129" y="687" type="line"/>
      <point x="129" y="694"/>
      <point x="186" y="697"/>
      <point x="230" y="697" type="curve" smooth="yes"/>
      <point x="252" y="697" type="line"/>
      <point x="252" y="710" type="line"/>
      <point x="1" y="710" type="line"/>
      <point x="1" y="697" type="line"/>
      <point x="7" y="697" type="line" smooth="yes"/>
      <point x="48" y="697"/>
      <point x="77" y="696"/>
      <point x="90" y="677" type="curve" smooth="yes"/>
      <point x="394" y="286" type="line"/>
    </contour>
  </outline>
</glyph>
<glyph name="a" format="2">
  <advance width="613"/>
  <unicode hex="0061"/>
  <outline>
    <contour>
      <point x="467" y="306" type="line"/>
      <point x="189" y="279"/>
      <point x="51" y="232"/>
      <point x="51" y="122" type="curve" smooth="yes"/>
      <point x="51" y="43"/>
      <point x="126" y="-10"/>
      <point x="240" y="-10" type="curve" smooth="yes"/>
      <point x="351" y="-10"/>
      <point x="431" y="46"/>
      <point x="467" y="115" type="curve"/>
      <point x="467" y="146" type="line"/>
      <point x="433" y="74"/>
      <point x="354" y="5"/>
      <point x="239" y="5" type="curve" smooth="yes"/>
      <point x="140" y="5"/>
      <point x="94" y="48"/>
      <point x="94" y="123" type="curve" smooth="yes"/>
      <point x="94" y="229"/>
      <point x="201" y="267"/>
      <point x="467" y="291" type="curve"/>
    </contour>
    <contour>
      <point x="456" y="0" type="line"/>
      <point x="599" y="0" type="line"/>
      <point x="599" y="13" type="line"/>
      <point x="598" y="13" type="line"/>
      <point x="527" y="13"/>
      <point x="497" y="18"/>
      <point x="497" y="39" type="curve" smooth="yes"/>
      <point x="497" y="388" type="line" smooth="yes"/>
      <point x="497" y="496"/>
      <point x="394" y="528"/>
      <point x="290" y="528" type="curve" smooth="yes"/>
      <point x="187" y="528"/>
      <point x="123" y="497"/>
      <point x="87" y="472" type="curve"/>
      <point x="87" y="406" type="line"/>
      <point x="132" y="406" type="line"/>
      <point x="132" y="487" type="line"/>
      <point x="119" y="483"/>
      <point x="109" y="468"/>
      <point x="109" y="458" type="curve"/>
      <point x="138" y="490"/>
      <point x="198" y="513"/>
      <point x="292" y="513" type="curve" smooth="yes"/>
      <point x="396" y="513"/>
      <point x="459" y="484"/>
      <point x="459" y="382" type="curve" smooth="yes"/>
      <point x="459" y="106" type="line"/>
      <point x="456" y="113" type="line"/>
    </contour>
  </outline>
</glyph>
<glyph name="e" format="2">
  <advance width="615"/>
  <unicode hex="0065"/>
  <outline>
    <contour>
      <point x="330" y="-10" type="curve" smooth="yes"/>
      <point x="454" y="-10"/>
      <point x="530" y="34"/>
      <point x="578" y="102" type="curve"/>
      <point x="565" y="111" type="line"/>
      <point x="525" y="51"/>
      <point x="455" y="5"/>
      <point x="328" y="5" type="curve" smooth="yes"/>
      <point x="188" y="5"/>
      <point x="77" y="96"/>
      <point x="77" y="254" type="curve" smooth="yes"/>
      <point x="77" y="414"/>
      <point x="172" y="513"/>
      <point x="316" y="513" type="curve" smooth="yes"/>
      <point x="461" y="513"/>
      <point x="534" y="431"/>
      <point x="537" y="288" type="curve"/>
      <point x="555" y="292" type="line"/>
      <point x="53" y="292" type="line"/>
      <point x="53" y="278" type="line"/>
      <point x="579" y="278" type="line"/>
      <point x="577" y="434"/>
      <point x="490" y="528"/>
      <point x="316" y="528" type="curve" smooth="yes"/>
      <point x="153" y="528"/>
      <point x="35" y="417"/>
      <point x="35" y="256" type="curve" smooth="yes"/>
      <point x="35" y="93"/>
      <point x="165" y="-10"/>
    </contour>
  </outline>
</glyph>
<glyph name="h" format="2">
  <advance width="698"/>
  <unicode hex="0068"/>
  <outline>
    <contour>
      <point x="683" y="0" type="line"/>
      <point x="683" y="13" type="line"/>
      <point x="680" y="13" type="line" smooth="yes"/>
      <point x="623" y="13"/>
      <point x="583" y="17"/>
      <point x="583" y="36" type="curve" smooth="yes"/>
      <point x="583" y="377" type="line" smooth="yes"/>
      <point x="583" y="481"/>
      <point x="515" y="528"/>
      <point x="399" y="528" type="curve" smooth="yes"/>
      <point x="299" y="528"/>
      <point x="222" y="483"/>
      <point x="156" y="409" type="curve"/>
      <point x="156" y="384" type="line"/>
      <point x="223" y="462"/>
      <point x="304" y="511"/>
      <point x="398" y="511" type="curve" smooth="yes"/>
      <point x="509" y="511"/>
      <point x="544" y="466"/>
      <point x="544" y="366" type="curve" smooth="yes"/>
      <point x="544" y="23" type="line" smooth="yes"/>
      <point x="544" y="16"/>
      <point x="493" y="13"/>
      <point x="461" y="13" type="curve" smooth="yes"/>
      <point x="458" y="13" type="line"/>
      <point x="458" y="0" type="line"/>
    </contour>
    <contour>
      <point x="165" y="750" type="line"/>
      <point x="23" y="750" type="line"/>
      <point x="23" y="738" type="line"/>
      <point x="49" y="736" type="line" smooth="yes"/>
      <point x="115" y="731"/>
      <point x="126" y="728"/>
      <point x="126" y="712" type="curve" smooth="yes"/>
      <point x="126" y="36" type="line" smooth="yes"/>
      <point x="126" y="17"/>
      <point x="86" y="13"/>
      <point x="30" y="13" type="curve" smooth="yes"/>
      <point x="27" y="13" type="line"/>
      <point x="27" y="0" type="line"/>
      <point x="265" y="0" type="line"/>
      <point x="265" y="13" type="line"/>
      <point x="263" y="13" type="line" smooth="yes"/>
      <point x="204" y="13"/>
      <point x="165" y="17"/>
      <point x="165" y="36" type="curve" smooth="yes"/>
    </contour>
  </outline>
</glyph>
<glyph name="j" format="2">
  <advance width="250"/>
  <unicode hex="006A"/>
  <outline>
    <contour>
      <point x="115" y="-95" type="line" smooth="yes"/>
      <point x="115" y="-188"/>
      <point x="70" y="-218"/>
      <point x="-2" y="-218" type="curve" smooth="yes"/>
      <point x="-20" y="-218"/>
      <point x="-28" y="-217"/>
      <point x="-53" y="-213" type="curve"/>
      <point x="-53" y="-229" type="line"/>
      <point x="-37" y="-232"/>
      <point x="-25" y="-233"/>
      <point x="-2" y="-233" type="curve" smooth="yes"/>
      <point x="76" y="-233"/>
      <point x="153" y="-204"/>
      <point x="153" y="-85" type="curve" smooth="yes"/>
      <point x="153" y="518" type="line"/>
      <point x="17" y="518" type="line"/>
      <point x="17" y="506" type="line"/>
      <point x="44" y="504" type="line" smooth="yes"/>
      <point x="106" y="499"/>
      <point x="115" y="495"/>
      <point x="115" y="478" type="curve" smooth="yes"/>
    </contour>
    <contour>
      <point x="112" y="661" type="curve" smooth="yes"/>
      <point x="130" y="661"/>
      <point x="143" y="673"/>
      <point x="143" y="692" type="curve" smooth="yes"/>
      <point x="143" y="712"/>
      <point x="130" y="724"/>
      <point x="112" y="724" type="curve" smooth="yes"/>
      <point x="93" y="724"/>
      <point x="80" y="712"/>
      <point x="80" y="692" type="curve" smooth="yes"/>
      <point x="80" y="673"/>
      <point x="93" y="661"/>
    </contour>
  </outline>
</glyph>
<glyph name="dieresis" format="2">
  <advance width="622"/>
  <unicode hex="00A8"/>
  <anchor x="312" y="526.0" name="_top"/>
  <outline>
    <contour>
      <point x="185" y="657" type="curve" smooth="yes"/>
      <point x="213" y="657"/>
      <point x="231" y="671"/>
      <point x="231" y="697" type="curve" smooth="yes"/>
      <point x="231" y="723"/>
      <point x="213" y="737"/>
      <point x="185" y="737" type="curve" smooth="yes"/>
      <point x="159" y="737"/>
      <point x="139" y="723"/>
      <point x="139" y="697" type="curve" smooth="yes"/>
      <point x="139" y="671"/>
      <point x="159" y="657"/>
    </contour>
    <contour>
      <point x="442" y="657" type="curve" smooth="yes"/>
      <point x="468" y="657"/>
      <point x="488" y="671"/>
      <point x="488" y="697" type="curve" smooth="yes"/>
      <point x="488" y="723"/>
      <point x="468" y="737"/>
      <point x="442" y="737" type="curve" smooth="yes"/>
      <point x="415" y="737"/>
      <point x="396" y="723"/>
      <point x="396" y="697" type="curve" smooth="yes"/>
      <point x="396" y="671"/>
      <point x="415" y="657"/>
    </contour>
  </outline>
</glyph>
<glyph name="cedilla" format="2">
  <advance width="750"/>
  <unicode hex="00B8"/>
  <anchor x="345" y="34.0" name="_bottom"/>
  <outline>
    <contour>
      <point x="369" y="4" type="line"/>
      <point x="329" y="4" type="line"/>
      <point x="286" y="-88" type="line"/>
      <point x="298" y="-88" type="line" smooth="yes"/>
      <point x="383" y="-88"/>
      <point x="415" y="-112"/>
      <point x="415" y="-148" type="curve" smooth="yes"/>
      <point x="415" y="-185"/>
      <point x="381" y="-208"/>
      <point x="337" y="-208" type="curve" smooth="yes"/>
      <point x="278" y="-208"/>
      <point x="254" y="-182"/>
      <point x="229" y="-162" type="curve"/>
      <point x="202" y="-186" type="line"/>
      <point x="231" y="-215"/>
      <point x="269" y="-236"/>
      <point x="334" y="-236" type="curve" smooth="yes"/>
      <point x="398" y="-236"/>
      <point x="457" y="-204"/>
      <point x="457" y="-148" type="curve" smooth="yes"/>
      <point x="457" y="-89"/>
      <point x="392" y="-56"/>
      <point x="308" y="-60" type="curve"/>
      <point x="295" y="-81"/>
      <point x="314" y="-80"/>
      <point x="316" y="-77" type="curve"/>
    </contour>
  </outline>
</glyph>
<glyph name="eth" format="2">
  <advance width="669"/>
  <unicode hex="00F0"/>
  <outline>
    <contour>
      <point x="575" y="400" type="curve"/>
      <point x="540" y="472"/>
      <point x="444" y="518"/>
      <point x="344" y="518" type="curve" smooth="yes"/>
      <point x="167" y="518"/>
      <point x="48" y="413"/>
      <point x="48" y="255" type="curve" smooth="yes"/>
      <point x="48" y="97"/>
      <point x="170" y="-12"/>
      <point x="339" y="-12" type="curve" smooth="yes"/>
      <point x="513" y="-12"/>
      <point x="620" y="102"/>
      <point x="620" y="291" type="curve" smooth="yes"/>
      <point x="620" y="484"/>
      <point x="505" y="668"/>
      <point x="191" y="758" type="curve"/>
      <point x="174" y="736" type="line"/>
      <point x="467" y="647"/>
      <point x="577" y="494"/>
      <point x="577" y="291" type="curve" smooth="yes"/>
      <point x="577" y="117"/>
      <point x="496" y="18"/>
      <point x="339" y="18" type="curve" smooth="yes"/>
      <point x="187" y="18"/>
      <point x="90" y="113"/>
      <point x="90" y="255" type="curve" smooth="yes"/>
      <point x="90" y="396"/>
      <point x="195" y="488"/>
      <point x="341" y="488" type="curve" smooth="yes"/>
      <point x="450" y="488"/>
      <point x="522" y="442"/>
      <point x="593" y="354" type="curve"/>
      <point x="610" y="384"/>
      <point x="603" y="394"/>
    </contour>
    <contour>
      <point x="113" y="585" type="line"/>
      <point x="129" y="560" type="line"/>
      <point x="541" y="723" type="line"/>
      <point x="526" y="748" type="line"/>
    </contour>
  </outline>
</glyph>
<glyph name="oslash" format="2">
  <advance width="689"/>
  <unicode hex="00F8"/>
  <anchor x="343" y="551.0" name="top"/>
  <outline>
    <contour>
      <point x="641" y="518" type="line"/>
      <point x="-11" y="-15" type="line"/>
      <point x="42" y="-15" type="line"/>
      <point x="694" y="518" type="line"/>
    </contour>
    <contour>
      <point x="349" y="-12" type="curve"/>
      <point x="520" y="-12"/>
      <point x="643" y="95"/>
      <point x="643" y="253" type="curve" smooth="yes"/>
      <point x="643" y="409"/>
      <point x="520" y="518"/>
      <point x="349" y="518" type="curve" smooth="yes"/>
      <point x="178" y="518"/>
      <point x="55" y="410"/>
      <point x="55" y="253" type="curve" smooth="yes"/>
      <point x="55" y="95"/>
      <point x="178" y="-12"/>
    </contour>
    <contour>
      <point x="349" y="18" type="curve"/>
      <point x="191" y="18"/>
      <point x="97" y="95"/>
      <point x="97" y="253" type="curve" smooth="yes"/>
      <point x="97" y="393"/>
      <point x="195" y="488"/>
      <point x="349" y="488" type="curve" smooth="yes"/>
      <point x="507" y="488"/>
      <point x="601" y="408"/>
      <point x="601" y="253" type="curve" smooth="yes"/>
      <point x="601" y="109"/>
      <point x="503" y="18"/>
    </contour>
  </outline>
</glyph>
<glyph name="dcroat" format="2">
  <advance width="732"/>
  <unicode hex="0111"/>
  <outline>
    <contour>
      <point x="92" y="250" type="curve" smooth="yes"/>
      <point x="92" y="392"/>
      <point x="180" y="488"/>
      <point x="330" y="488" type="curve" smooth="yes"/>
      <point x="439" y="488"/>
      <point x="519" y="423"/>
      <point x="569" y="325" type="curve"/>
      <point x="569" y="325"/>
      <point x="595" y="346"/>
      <point x="594" y="346" type="curve"/>
      <point x="530" y="456"/>
      <point x="458" y="518"/>
      <point x="329" y="518" type="curve" smooth="yes"/>
      <point x="164" y="518"/>
      <point x="50" y="408"/>
      <point x="50" y="250" type="curve" smooth="yes"/>
      <point x="50" y="93"/>
      <point x="149" y="-11"/>
      <point x="311" y="-11" type="curve" smooth="yes"/>
      <point x="447" y="-11"/>
      <point x="526" y="59"/>
      <point x="607" y="169" type="curve"/>
      <point x="609" y="169"/>
      <point x="584" y="196"/>
      <point x="588" y="196" type="curve"/>
      <point x="516" y="92"/>
      <point x="429" y="19"/>
      <point x="316" y="19" type="curve" smooth="yes"/>
      <point x="167" y="19"/>
      <point x="92" y="108"/>
    </contour>
    <contour>
      <point x="567" y="735" type="line"/>
      <point x="567" y="137" type="line"/>
      <point x="565" y="132" type="line"/>
      <point x="565" y="0" type="line"/>
      <point x="713" y="0" type="line"/>
      <point x="713" y="27" type="line"/>
      <point x="712" y="27" type="line"/>
      <point x="650" y="27"/>
      <point x="605" y="34"/>
      <point x="605" y="63" type="curve" smooth="yes"/>
      <point x="605" y="735" type="line"/>
    </contour>
    <contour>
      <point x="728" y="632" type="line"/>
      <point x="299" y="632" type="line"/>
      <point x="299" y="602" type="line"/>
      <point x="728" y="602" type="line"/>
    </contour>
  </outline>
</glyph>
<glyph name="uhorn" format="2">
  <advance width="748"/>
  <unicode hex="01B0"/>
  <anchor x="342" y="545.0" name="top"/>
  <outline>
    <contour>
      <point x="165" y="508" type="line"/>
      <point x="19" y="508" type="line"/>
      <point x="19" y="481" type="line"/>
      <point x="19" y="481" type="line" smooth="yes"/>
      <point x="79" y="481"/>
      <point x="127" y="474"/>
      <point x="127" y="445" type="curve" smooth="yes"/>
      <point x="127" y="151" type="line" smooth="yes"/>
      <point x="127" y="40"/>
      <point x="194" y="-10"/>
      <point x="311" y="-10" type="curve" smooth="yes"/>
      <point x="420" y="-10"/>
      <point x="500" y="40"/>
      <point x="582" y="142" type="curve"/>
      <point x="570" y="173" type="line"/>
      <point x="500" y="80"/>
      <point x="422" y="23"/>
      <point x="316" y="23" type="curve" smooth="yes"/>
      <point x="202" y="23"/>
      <point x="165" y="66"/>
      <point x="165" y="162" type="curve"/>
    </contour>
    <contour>
      <point x="578" y="508" type="line"/>
      <point x="461" y="498"/>
      <point x="534" y="491"/>
      <point x="543" y="486" type="curve"/>
      <point x="726" y="496"/>
      <point x="763" y="567"/>
      <point x="773" y="685" type="curve"/>
      <point x="732" y="685" type="line"/>
      <point x="719" y="545"/>
      <point x="670" y="508"/>
      <point x="441" y="508" type="curve" smooth="yes"/>
      <point x="423" y="508" type="line"/>
      <point x="423" y="481" type="line"/>
      <point x="421" y="481" type="line"/>
      <point x="494" y="481"/>
      <point x="540" y="474"/>
      <point x="540" y="445" type="curve" smooth="yes"/>
      <point x="540" y="107" type="line"/>
      <point x="538" y="116" type="line"/>
      <point x="538" y="0" type="line"/>
      <point x="689" y="0" type="line"/>
      <point x="689" y="27" type="line"/>
      <point x="686" y="27" type="line" smooth="yes"/>
      <point x="624" y="27"/>
      <point x="578" y="34"/>
      <point x="578" y="63" type="curve" smooth="yes"/>
    </contour>
  </outline>
</glyph>
<glyph name="peseta" format="2">
  <advance width="699"/>
  <unicode hex="20A7"/>
  <outline>
    <contour>
      <point x="-18" y="0" type="line"/>
      <point x="234" y="0" type="line"/>
      <point x="234" y="30" type="line"/>
      <point x="199" y="30" type="line" smooth="yes"/>
      <point x="158" y="30"/>
      <point x="120" y="33"/>
      <point x="120" y="40" type="curve" smooth="yes"/>
      <point x="120" y="279" type="line"/>
      <point x="140" y="279" type="line" smooth="yes"/>
      <point x="329" y="279"/>
      <point x="421" y="368"/>
      <point x="421" y="498" type="curve" smooth="yes"/>
      <point x="421" y="628"/>
      <point x="332" y="710"/>
      <point x="146" y="710" type="curve" smooth="yes"/>
      <point x="-18" y="710" type="line"/>
      <point x="-18" y="680" type="line"/>
      <point x="-3" y="680" type="line" smooth="yes"/>
      <point x="48" y="680"/>
      <point x="81" y="673"/>
      <point x="81" y="644" type="curve" smooth="yes"/>
      <point x="81" y="66" type="line" smooth="yes"/>
      <point x="81" y="37"/>
      <point x="48" y="30"/>
      <point x="-3" y="30" type="curve" smooth="yes"/>
      <point x="-18" y="30" type="line"/>
    </contour>
    <contour>
      <point x="146" y="680" type="line" smooth="yes"/>
      <point x="306" y="680"/>
      <point x="378" y="613"/>
      <point x="378" y="497" type="curve" smooth="yes"/>
      <point x="378" y="383"/>
      <point x="307" y="309"/>
      <point x="139" y="309" type="curve" smooth="yes"/>
      <point x="120" y="309" type="line"/>
      <point x="120" y="680" type="line"/>
    </contour>
    <contour>
      <point x="403" y="478" type="line"/>
      <point x="714" y="478" type="line"/>
      <point x="714" y="508" type="line"/>
      <point x="561" y="508" type="line"/>
      <point x="519" y="553" type="line"/>
      <point x="519" y="512"/>
      <point x="489" y="503"/>
      <point x="428" y="503" type="curve" smooth="yes"/>
      <point x="403" y="503" type="line"/>
    </contour>
    <contour>
      <point x="555" y="111" type="curve" smooth="yes"/>
      <point x="555" y="648" type="line"/>
      <point x="519" y="648" type="line"/>
      <point x="519" y="500" type="line"/>
      <point x="516" y="492" type="line"/>
      <point x="516" y="111" type="line" smooth="yes"/>
      <point x="516" y="24"/>
      <point x="581" y="-11"/>
      <point x="653" y="-11" type="curve" smooth="yes"/>
      <point x="694" y="-11"/>
      <point x="721" y="-5"/>
      <point x="734" y="1" type="curve"/>
      <point x="734" y="33" type="line"/>
      <point x="723" y="30"/>
      <point x="690" y="22"/>
      <point x="660" y="22" type="curve" smooth="yes"/>
      <point x="601" y="22"/>
      <point x="555" y="52"/>
    </contour>
  </outline>
</glyph>
<glyph name="estimated" format="2">
  <advance width="1055"/>
  <unicode hex="212E"/>
  <outline>
    <contour>
      <point x="225" y="131" type="line"/>
      <point x="298" y="58"/>
      <point x="404" y="25"/>
      <point x="528" y="25" type="curve" smooth="yes"/>
      <point x="719" y="25"/>
      <point x="859" y="106"/>
      <point x="928" y="236" type="curve"/>
      <point x="978" y="236" type="line"/>
      <point x="913" y="98"/>
      <point x="750" y="-10"/>
      <point x="528" y="-10" type="curve" smooth="yes"/>
      <point x="262" y="-10"/>
      <point x="57" y="150"/>
      <point x="57" y="355" type="curve" smooth="yes"/>
      <point x="57" y="560"/>
      <point x="262" y="720"/>
      <point x="528" y="720" type="curve" smooth="yes"/>
      <point x="794" y="720"/>
      <point x="998" y="560"/>
      <point x="998" y="355" type="curve"/>
      <point x="170" y="355" type="line"/>
      <point x="170" y="390" type="line"/>
      <point x="830" y="390" type="line"/>
      <point x="830" y="581" type="line"/>
      <point x="758" y="650"/>
      <point x="651" y="685"/>
      <point x="528" y="685" type="curve" smooth="yes"/>
      <point x="404" y="685"/>
      <point x="295" y="648"/>
      <point x="225" y="580" type="curve"/>
    </contour>
  </outline>
</glyph>
<glyph name="Euro.proportional" format="2">
  <advance width="727"/>
  <outline>
    <contour>
      <point x="29" y="437" type="line"/>
      <point x="29" y="407" type="line"/>
      <point x="487" y="407" type="line"/>
      <point x="487" y="437" type="line"/>
    </contour>
    <contour>
      <point x="29" y="286" type="line"/>
      <point x="29" y="256" type="line"/>
      <point x="440" y="256" type="line"/>
      <point x="440" y="286" type="line"/>
    </contour>
    <contour>
      <point x="176" y="349" type="curve"/>
      <point x="176" y="600"/>
      <point x="310" y="689"/>
      <point x="472" y="689" type="curve" smooth="yes"/>
      <point x="544" y="689"/>
      <point x="622" y="667"/>
      <point x="660" y="625" type="curve"/>
      <point x="663" y="632"/>
      <point x="650" y="663"/>
      <point x="637" y="665" type="curve"/>
      <point x="637" y="573" type="line"/>
      <point x="687" y="573" type="line"/>
      <point x="687" y="654" type="line"/>
      <point x="659" y="684"/>
      <point x="566" y="719"/>
      <point x="472" y="719" type="curve" smooth="yes"/>
      <point x="282" y="719"/>
      <point x="134" y="614"/>
      <point x="134" y="349" type="curve"/>
      <point x="134" y="102"/>
      <point x="263" y="-10"/>
      <point x="450" y="-10" type="curve" smooth="yes"/>
      <point x="579" y="-10"/>
      <point x="654" y="52"/>
      <point x="699" y="136" type="curve"/>
      <point x="663" y="153" type="line"/>
      <point x="628" y="85"/>
      <point x="568" y="20"/>
      <point x="446" y="20" type="curve" smooth="yes"/>
      <point x="284" y="20"/>
      <point x="176" y="115"/>
    </contour>
  </outline>
</glyph>
<glyph name="acute.pl" format="2">
  <advance width="622"/>
  <anchor x="260" y="489.0" name="_top"/>
  <outline>
    <contour>
      <point x="269" y="704" type="curve" smooth="yes"/>
      <point x="250" y="593" type="line"/>
      <point x="250" y="576" type="line"/>
      <point x="271" y="576" type="line"/>
      <point x="323" y="684" type="line" smooth="yes"/>
      <point x="329" y="700"/>
      <point x="335" y="714"/>
      <point x="335" y="728" type="curve" smooth="yes"/>
      <point x="335" y="745"/>
      <point x="321" y="754"/>
      <point x="306" y="754" type="curve" smooth="yes"/>
      <point x="279" y="754"/>
      <point x="273" y="736"/>
    </contour>
  </outline>
</glyph>
<glyph name="blackuppointingtriangle" format="2">
  <advance width="807"/>
  <outline>
    <contour>
      <point x="63" y="91" type="line"/>
      <point x="744" y="91" type="line"/>
      <point x="403" y="464" type="line"/>
    </contour>
  </outline>
</glyph>
<glyph name="five.den" format="2">
  <advance width="403"/>
  <outline>
    <contour>
      <point x="206" y="-6" type="curve" smooth="yes"/>
      <point x="113" y="-6"/>
      <point x="57" y="32"/>
      <point x="29" y="78" type="curve"/>
      <point x="66" y="97" type="line"/>
      <point x="86" y="61"/>
      <point x="132" y="24"/>
      <point x="207" y="24" type="curve" smooth="yes"/>
      <point x="269" y="24"/>
      <point x="319" y="55"/>
      <point x="319" y="116" type="curve" smooth="yes"/>
      <point x="319" y="166"/>
      <point x="283" y="195"/>
      <point x="220" y="195" type="curve" smooth="yes"/>
      <point x="166" y="195"/>
      <point x="135" y="175"/>
      <point x="110" y="146" type="curve"/>
      <point x="73" y="146" type="line"/>
      <point x="73" y="341" type="line"/>
      <point x="331" y="341" type="line"/>
      <point x="324" y="300" type="line"/>
      <point x="100" y="300" type="line"/>
      <point x="117" y="330" type="line"/>
      <point x="117" y="173" type="line"/>
      <point x="114" y="166"/>
      <point x="99" y="162"/>
      <point x="97" y="173" type="curve"/>
      <point x="123" y="204"/>
      <point x="165" y="225"/>
      <point x="223" y="225" type="curve" smooth="yes"/>
      <point x="316" y="225"/>
      <point x="369" y="176"/>
      <point x="369" y="116" type="curve" smooth="yes"/>
      <point x="369" y="44"/>
      <point x="301" y="-6"/>
    </contour>
  </outline>
</glyph>
<glyph name="four.den" format="2">
  <advance width="399"/>
  <outline>
    <contour>
      <point x="23" y="89" type="line"/>
      <point x="379" y="89" type="line"/>
      <point x="379" y="122" type="line"/>
      <point x="56" y="122" type="line"/>
      <point x="44" y="98" type="line"/>
      <point x="258" y="316" type="line"/>
      <point x="279" y="341" type="line"/>
      <point x="232" y="341" type="line"/>
      <point x="23" y="125" type="line"/>
    </contour>
    <contour>
      <point x="295" y="0" type="line"/>
      <point x="295" y="341" type="line"/>
      <point x="260" y="341" type="line"/>
      <point x="252" y="332" type="line"/>
      <point x="252" y="0" type="line"/>
    </contour>
  </outline>
</glyph>
<glyph name="hook.uc" format="2">
  <advance width="636"/>
  <anchor x="271" y="679.0" name="_top"/>
  <outline>
    <contour>
      <point x="153" y="881" type="line"/>
      <point x="162" y="926"/>
      <point x="213" y="964"/>
      <point x="300" y="964" type="curve" smooth="yes"/>
      <point x="378" y="964"/>
      <point x="426" y="937"/>
      <point x="426" y="889" type="curve" smooth="yes"/>
      <point x="426" y="837"/>
      <point x="356" y="807"/>
      <point x="277" y="803" type="curve"/>
      <point x="311" y="829" type="line"/>
      <point x="311" y="762" type="line"/>
      <point x="262" y="762" type="line"/>
      <point x="262" y="828" type="line"/>
      <point x="331" y="831"/>
      <point x="384" y="848"/>
      <point x="384" y="888" type="curve" smooth="yes"/>
      <point x="384" y="919"/>
      <point x="351" y="937"/>
      <point x="301" y="937" type="curve" smooth="yes"/>
      <point x="235" y="937"/>
      <point x="209" y="913"/>
      <point x="199" y="881" type="curve"/>
    </contour>
  </outline>
</glyph>
<glyph name="nine.den" format="2">
  <advance width="399"/>
  <outline>
    <contour>
      <point x="69" y="15" type="line"/>
      <point x="229" y="31"/>
      <point x="305" y="96"/>
      <point x="305" y="199" type="curve" smooth="yes"/>
      <point x="305" y="281"/>
      <point x="266" y="316"/>
      <point x="196" y="316" type="curve" smooth="yes"/>
      <point x="136" y="316"/>
      <point x="94" y="283"/>
      <point x="94" y="232" type="curve" smooth="yes"/>
      <point x="94" y="190"/>
      <point x="118" y="155"/>
      <point x="188" y="155" type="curve" smooth="yes"/>
      <point x="249" y="155"/>
      <point x="299" y="187"/>
      <point x="326" y="236" type="curve"/>
      <point x="337" y="208" type="line"/>
      <point x="319" y="168"/>
      <point x="259" y="124"/>
      <point x="182" y="124" type="curve" smooth="yes"/>
      <point x="92" y="124"/>
      <point x="44" y="168"/>
      <point x="44" y="232" type="curve" smooth="yes"/>
      <point x="44" y="297"/>
      <point x="111" y="346"/>
      <point x="197" y="346" type="curve" smooth="yes"/>
      <point x="293" y="346"/>
      <point x="354" y="295"/>
      <point x="354" y="199" type="curve" smooth="yes"/>
      <point x="354" y="84"/>
      <point x="257" y="1"/>
      <point x="73" y="-15" type="curve"/>
    </contour>
  </outline>
</glyph>
<glyph name="zero.den" format="2">
  <advance width="404"/>
  <outline>
    <contour>
      <point x="202" y="347" type="curve" smooth="yes"/>
      <point x="107" y="347"/>
      <point x="40" y="277"/>
      <point x="40" y="170" type="curve" smooth="yes"/>
      <point x="40" y="64"/>
      <point x="107" y="-6"/>
      <point x="202" y="-6" type="curve" smooth="yes"/>
      <point x="297" y="-6"/>
      <point x="365" y="64"/>
      <point x="365" y="170" type="curve" smooth="yes"/>
      <point x="365" y="277"/>
      <point x="297" y="347"/>
    </contour>
    <contour>
      <point x="202" y="21" type="curve" smooth="yes"/>
      <point x="131" y="21"/>
      <point x="85" y="73"/>
      <point x="85" y="170" type="curve" smooth="yes"/>
      <point x="85" y="267"/>
      <point x="131" y="320"/>
      <point x="202" y="320" type="curve" smooth="yes"/>
      <point x="274" y="320"/>
      <point x="320" y="267"/>
      <point x="320" y="170" type="curve" smooth="yes"/>
      <point x="320" y="73"/>
      <point x="274" y="21"/>
    </contour>
  </outline>
</glyph>
